<svg width="240" height="240" viewBox="0 0 240 240" fill="none" xmlns="http://www.w3.org/2000/svg">
<path d="M22.9988 190.66L92.2097 121.449L21.7894 51.0283C8.06081 70.5408 0 94.329 0 120C0 146.416 8.53542 170.838 22.9988 190.66Z" fill="white"/>
<path d="M50.5874 217.899C70.182 231.817 94.1354 240 120 240C145.671 240 169.459 231.939 188.972 218.211L119.624 148.863L50.5874 217.899Z" fill="white"/>
<path d="M216.683 191.094C231.339 171.195 240 146.609 240 120C240 94.1354 231.817 70.182 217.899 50.5874L147.038 121.449L216.683 191.094Z" fill="white"/>
<path d="M190.66 22.9988L119.624 94.0346L48.9063 23.3171C68.8046 8.66075 93.3909 0 120 0C146.416 0 170.838 8.53542 190.66 22.9988Z" fill="white"/>
</svg>
