<svg width="240" height="240" viewBox="0 0 240 240" fill="none" xmlns="http://www.w3.org/2000/svg">
<path d="M239.732 128.084C239.91 125.412 240 122.717 240 120C240 53.7258 186.274 0 120 0C53.7258 0 0 53.7258 0 120C0 122.736 0.0915846 125.451 0.271856 128.142L120.032 27.6512L120.037 27.6567L120.041 27.6512L239.732 128.084Z" fill="white"/>
<path d="M229.189 169.847L120.037 78.2571L10.8311 169.891C17.3651 184.165 26.6163 196.936 37.923 207.541L119.867 138.782L119.872 138.787L119.877 138.782L201.956 207.654C213.329 197.016 222.631 184.19 229.189 169.847Z" fill="white"/>
<path d="M168.191 229.931L119.872 189.387L71.6416 229.858C86.435 236.379 102.795 240 120 240C137.14 240 153.441 236.406 168.191 229.931Z" fill="white"/>
</svg>
